<?xml version="1.0" encoding="utf-8"?>
<!-- Generator: Adobe Illustrator 22.0.0, SVG Export Plug-In . SVG Version: 6.00 Build 0)  -->
<svg version="1.1" id="Layer_1" xmlns="http://www.w3.org/2000/svg" xmlns:xlink="http://www.w3.org/1999/xlink" x="0px" y="0px"
	 viewBox="0 0 273.2 82.2" style="enable-background:new 0 0 273.2 82.2;" xml:space="preserve">
<style type="text/css">
	.st0{fill:#0066CC;}
	.st1{fill:#FF702C;}
</style>
<path class="st0" d="M48.6,18.9h-40c3.8-4,8.8-7.7,14.3-8.8c1.9-0.4,3.8-0.6,5.7-0.6c1.9,0,3.8,0.2,5.7,0.6
	C39.8,11.2,44.8,14.9,48.6,18.9"/>
<path class="st0" d="M23.5,29v38.4C10.7,64.5,0.2,52.8,0.2,38.7c0-3.1,0.5-7,1.3-9.8H23.5z"/>
<path class="st0" d="M57.1,38.7c0,14.1-10.7,25.9-23.6,28.7V29h22.3C56.6,31.8,57.1,35.7,57.1,38.7"/>
<path class="st0" d="M62.9,67.5c0-12.3,0-24.9,0-37.3c3.6,0,7.3,0,10.9,0c0,2.2,0,4.6-0.1,6.7c0,0,3.8-8.8,11.7-7v10.8
	c-0.3,0-1.6-0.2-3.3,0.1c-1,0.2-3.3,0.7-5.3,2.7c-2.1,2.1-2.5,4.5-2.7,5.4v18.5H62.9z"/>
<rect x="91.3" y="30.1" class="st0" width="10.6" height="37.3"/>
<path class="st0" d="M102.6,19c0,3.3-2.7,6-6,6c-3.3,0-6-2.7-6-6c0-3.3,2.7-6,6-6C100,13.1,102.6,15.7,102.6,19"/>
<polygon class="st0" points="164.5,0 136.7,21.8 136.6,21.9 117.5,21.9 "/>
<polygon class="st1" points="164.5,0 145.1,32 136.6,21.9 "/>
<polygon class="st1" points="156.2,18.9 156.2,67.4 167.5,67.4 167.5,48.6 190.1,48.6 190.1,39.1 167.5,39.1 167.5,28.9 192.8,28.9 
	192.8,18.9 "/>
<path class="st1" d="M222.3,67.4l0-4.6c-0.8,1.1-2.2,2.5-4.3,3.7c-0.9,0.5-6.4,3.6-11.8,1.3c-4.8-2-7.8-7.5-7.4-13.6
	c0-7.9,0-16.3,0-24.1c3.6,0,7.1,0,10.7,0.1c0,6.9,0,14.3,0.1,21.1c-0.5,4.2,2.8,7.6,6.4,7.6c3.4-0.1,6.5-3.3,6.2-7.3V30.6v-0.6
	c3.6,0,7.1,0,10.7,0c0.1,12.4,0.1,25,0.2,37.4C229.4,67.5,225.9,67.4,222.3,67.4"/>
<path class="st1" d="M249.5,30.1v5.8c0.8-1.1,2.2-2.5,4.3-3.7c0.9-0.5,6.4-3.5,11.8-1.3c4.8,2,7.8,7.5,7.4,13.6c0,7.9,0,15.1,0,22.9
	c-3.6,0-7.2,0-10.7-0.1c0-6.9,0-13-0.1-19.9c0.5-4.2-2.8-7.6-6.4-7.6c-3.4,0.1-6.5,3.3-6.2,7.3v20.9c0,0,0-0.6,0-0.6
	c-3.6,0-7.1,0-10.7,0c0-12.4-0.1-24.9-0.2-37.3C242.4,30.1,245.9,30.1,249.5,30.1"/>
<path class="st0" d="M127.5,30.1c-3.7,0-7.1,1.1-9.9,3.1v-3.1h-9.5v52h9.5V62.3c2.8,1.9,6.2,3.1,9.9,3.1c9.7,0,17.6-7.9,17.6-17.6
	C145.1,38,137.2,30.1,127.5,30.1 M127.5,57.4c-5.3,0-9.7-4.3-9.7-9.7c0-5.3,4.3-9.7,9.7-9.7c5.3,0,9.7,4.3,9.7,9.7
	C137.1,53.1,132.8,57.4,127.5,57.4"/>
</svg>
