<?xml version="1.0" encoding="utf-8"?>
<!-- Generator: Adobe Illustrator 16.0.0, SVG Export Plug-In . SVG Version: 6.00 Build 0)  -->
<!DOCTYPE svg PUBLIC "-//W3C//DTD SVG 1.1//EN" "http://www.w3.org/Graphics/SVG/1.1/DTD/svg11.dtd">
<svg version="1.1" id="Layer_1" xmlns="http://www.w3.org/2000/svg" xmlns:xlink="http://www.w3.org/1999/xlink" x="0px" y="0px"
	 width="43.856px" height="47.19px" viewBox="0 0 43.856 47.19" enable-background="new 0 0 43.856 47.19" xml:space="preserve">
<g>
	<path fill="#DA922A" d="M24.416,34.233v8.969h3.738V34.98l0.748-1.495v-2.243h-2.991L24.416,34.233z"/>
	<path fill="#DA922A" d="M19.93,34.233v8.969h-3.738V34.98l-0.748-1.495v-2.243h2.991L19.93,34.233z"/>
	<path fill="#F3AF3E" d="M34.136,28.999H29.65l-1.496,2.243v2.242l-0.748,1.496v8.222h6.729V28.999z"/>
	<path fill="#F3AF3E" d="M10.21,28.999h4.486l1.496,2.243v2.242l0.748,1.496v8.222H10.21V28.999z"/>
	<path fill="#FBB540" d="M10.958,28.999v14.203H0.49v-4.483l1.496-3.738v-8.225l0.748-2.243h6.729L10.958,28.999z"/>
	<path fill="#EA9D2D" d="M14.789,36.477l-3.832-0.002l-5.234-2.99l-3.738-0.001v-2.991h3.738l5.234,2.991h5.234L14.789,36.477z"/>
	<path fill="#EA9D2D" d="M19.93,38.717v1.496h-8.972c-0.095,0-0.189-0.019-0.278-0.054l-3.604-1.442H2.826
		c-0.413,0-0.748-0.335-0.748-0.747s0.334-0.748,0.748-0.748h4.393c0.095,0,0.19,0.018,0.278,0.054l3.604,1.441H19.93z"/>
	<path fill="#6CBAE5" d="M40.139,1.754h-0.15c-0.483-1.368-1.985-2.086-3.353-1.604c-0.749,0.265-1.338,0.854-1.603,1.604h-0.15
		c-0.968,0-1.752,0.783-1.752,1.752c0,0.967,0.785,1.751,1.752,1.751h5.255c0.968,0,1.752-0.784,1.752-1.751
		C41.892,2.537,41.107,1.754,40.139,1.754z"/>
	<path fill="#4799CF" d="M5.569,11.616H5.45c-0.384-1.088-1.577-1.657-2.665-1.273c-0.595,0.21-1.063,0.678-1.273,1.273H1.392
		C0.623,11.616,0,12.24,0,13.009s0.623,1.393,1.392,1.393h4.177c0.769,0,1.393-0.624,1.393-1.393S6.338,11.616,5.569,11.616z"/>
	<path fill="#EA9D2D" d="M7.967,35.728v6.73H6.471v-6.503l-1.37-2.056c-0.081-0.123-0.125-0.267-0.125-0.414v-8.973h1.496v8.747
		l1.37,2.054C7.923,35.436,7.966,35.581,7.967,35.728z"/>
	<path fill="#FBB540" d="M13.948,43.202v-6.726l2.243-2.992l0.748,1.496v8.222H13.948z"/>
	<path fill="#FFC961" d="M1.985,34.979L3.48,37.97v4.488H0.49v-3.739L1.985,34.979z"/>
	<path fill="#FBB540" d="M33.388,28.999v14.203h10.468v-4.483L42.36,34.98v-8.225l-0.748-2.243h-6.729L33.388,28.999z"/>
	<path fill="#EA9D2D" d="M29.557,36.477l3.831-0.002l5.234-2.99l3.738-0.001v-2.991h-3.738l-5.234,2.991h-5.233L29.557,36.477z"/>
	<path fill="#EA9D2D" d="M24.416,38.717v1.496h8.972c0.095,0,0.19-0.019,0.278-0.054l3.604-1.442h4.25
		c0.413,0,0.748-0.335,0.748-0.747s-0.334-0.748-0.748-0.748h-4.393c-0.096,0-0.19,0.018-0.278,0.054l-3.604,1.441H24.416z"/>
	<path fill="#EA9D2D" d="M36.379,35.728v6.73h1.496v-6.503l1.37-2.056c0.081-0.123,0.125-0.267,0.125-0.414v-8.973h-1.495v8.747
		l-1.371,2.054C36.422,35.436,36.379,35.581,36.379,35.728z"/>
	<path fill="#FBB540" d="M30.397,43.202v-6.726l-2.243-2.992l-0.748,1.496v8.222H30.397z"/>
	<path fill="#FFC961" d="M42.36,34.979l-1.495,2.991v4.488h2.991v-3.739L42.36,34.979z"/>
	<path fill="#DA922A" d="M0.49,42.458h43.366v4.732H0.49V42.458z"/>
	<path fill="#C38325" d="M22.92,45.193h-1.496c-0.413,0-0.748-0.335-0.748-0.748s0.335-0.747,0.748-0.747h1.496
		c0.413,0,0.748,0.334,0.748,0.747S23.333,45.193,22.92,45.193z"/>
	<path fill="#C38325" d="M26.659,45.193h-0.748c-0.413,0-0.748-0.335-0.748-0.748s0.334-0.747,0.748-0.747h0.748
		c0.413,0,0.748,0.334,0.748,0.747S27.072,45.193,26.659,45.193z"/>
	<path fill="#C38325" d="M36.379,45.193h-0.748c-0.413,0-0.748-0.335-0.748-0.748s0.335-0.747,0.748-0.747h0.748
		c0.413,0,0.748,0.334,0.748,0.747S36.792,45.193,36.379,45.193z"/>
	<path fill="#C38325" d="M7.967,45.193H6.471c-0.413,0-0.748-0.335-0.748-0.748s0.335-0.747,0.748-0.747h1.496
		c0.413,0,0.748,0.334,0.748,0.747S8.379,45.193,7.967,45.193z"/>
	<path fill="#C38325" d="M11.705,45.193h-0.748c-0.413,0-0.748-0.335-0.748-0.748s0.334-0.747,0.748-0.747h0.748
		c0.413,0,0.748,0.334,0.748,0.747S12.118,45.193,11.705,45.193z"/>
	<path fill="#C38325" d="M32.64,45.193h-2.99c-0.413,0-0.748-0.335-0.748-0.748s0.335-0.747,0.748-0.747h2.99
		c0.413,0,0.748,0.334,0.748,0.747S33.053,45.193,32.64,45.193z"/>
	<path fill="#C38325" d="M43.856,43.698v1.495H39.37c-0.413,0-0.748-0.335-0.748-0.748s0.334-0.747,0.748-0.747H43.856z"/>
	<path fill="#C38325" d="M18.435,45.193h-3.739c-0.413,0-0.748-0.335-0.748-0.748s0.334-0.747,0.748-0.747h3.739
		c0.413,0,0.747,0.334,0.747,0.747S18.848,45.193,18.435,45.193z"/>
	<path fill="#C38325" d="M4.229,44.445c0,0.413-0.335,0.748-0.748,0.748H0.49v-1.495H3.48C3.893,43.698,4.229,44.032,4.229,44.445z"
		/>
	<g id="helicopter">
		
			<line fill="none" stroke="#7C7D7D" stroke-width="2" stroke-linecap="round" stroke-linejoin="round" stroke-miterlimit="10" x1="19.128" y1="10.646" x2="19.128" y2="7.544"/>
		<path fill="#7EDEE8" d="M13.182,11.317v4.761c0,1.875-1.183,3.538-2.949,4.152l-0.062,0.022l-3.955,1.388H6.21
			c-0.041-0.089-0.082-0.184-0.124-0.279c-0.027-0.068-0.054-0.144-0.082-0.22c-0.103-0.28-0.185-0.574-0.247-0.889
			c-0.129-0.651-0.164-1.361-0.02-2.114c0.027-0.131,0.054-0.26,0.095-0.391c0.035-0.13,0.076-0.26,0.124-0.396
			c0.035-0.09,0.069-0.178,0.103-0.267c0.021-0.048,0.041-0.097,0.062-0.144c0.048-0.104,0.096-0.199,0.151-0.303
			c0.027-0.061,0.062-0.116,0.096-0.177c0.048-0.103,0.109-0.205,0.178-0.308c0.164-0.253,0.342-0.493,0.534-0.732
			c0.143-0.178,0.293-0.343,0.451-0.506c0.158-0.165,0.315-0.329,0.486-0.479c0.109-0.104,0.219-0.199,0.335-0.295
			c0.144-0.123,0.288-0.247,0.445-0.363c0.109-0.082,0.219-0.172,0.335-0.252c0.13-0.09,0.26-0.186,0.397-0.274
			c0.964-0.649,2.141-1.286,3.571-1.902C13.127,11.337,13.154,11.33,13.182,11.317z"/>
		<polygon fill="#FFFFFF" points="12.839,11.33 8.842,20.697 7.366,21.593 11.471,12.015 		"/>
		<path fill="#FE1744" d="M42.082,9.661l-3.059,7.308l-8.491,2.072c-0.849,0.206-1.615,0.63-2.244,1.212
			c-0.363,0.334-0.684,0.724-0.944,1.155c-0.711,1.155-1.827,2.437-3.277,2.437H8.892c-0.862,0-1.656-0.438-2.121-1.156
			c-0.144-0.227-0.294-0.479-0.424-0.761c-0.021-0.047-0.047-0.094-0.068-0.144c-0.021-0.047-0.042-0.095-0.062-0.144l3.955-1.388
			l0.062-0.022c1.766-0.614,2.949-2.277,2.949-4.152v-4.761c1.033-0.446,2.142-0.678,3.263-0.678h9.778
			c1.464,0,2.012,0.548,2.018,1.231l0.014,1.868h7.622l3.4-4.078H42.082z"/>
		<rect x="13.182" y="14.428" fill="#FE1744" width="26.621" height="1.36"/>
		<path fill="#FE1744" d="M28.289,20.253c-0.363,0.334-0.684,0.724-0.944,1.155c-0.711,1.155-1.827,2.437-3.277,2.437H8.892
			c-0.862,0-1.656-0.438-2.121-1.156c-0.144-0.227-0.294-0.479-0.424-0.761c-0.021-0.047-0.047-0.094-0.068-0.144
			c-0.021-0.047-0.042-0.095-0.062-0.144l3.955-1.388H28.289z"/>
		<path fill="#7C7D7D" d="M18.191,9.357h2.054c0.525,0,0.955-0.43,0.955-0.955V7.562c0-0.526-0.43-0.956-0.955-0.956h-2.054
			c-0.525,0-0.956,0.43-0.956,0.956v0.841C17.236,8.928,17.666,9.357,18.191,9.357z"/>
		
			<line fill="none" stroke="#7C7D7D" stroke-width="2" stroke-linecap="round" stroke-linejoin="round" stroke-miterlimit="10" x1="17.236" y1="8.209" x2="3.592" y2="8.209"/>
		
			<line fill="none" stroke="#7C7D7D" stroke-width="2" stroke-linecap="round" stroke-linejoin="round" stroke-miterlimit="10" x1="34.845" y1="8.209" x2="21.2" y2="8.209"/>
		
			<line fill="none" stroke="#7C7D7D" stroke-width="2" stroke-linecap="round" stroke-linejoin="round" stroke-miterlimit="10" x1="24.07" y1="23.848" x2="24.07" y2="27.61"/>
		
			<line fill="none" stroke="#7C7D7D" stroke-width="2" stroke-linecap="round" stroke-linejoin="round" stroke-miterlimit="10" x1="11.31" y1="23.848" x2="11.31" y2="27.612"/>
		
			<line fill="none" stroke="#7C7D7D" stroke-width="2" stroke-linecap="round" stroke-linejoin="round" stroke-miterlimit="10" x1="28.675" y1="27.61" x2="7.816" y2="27.612"/>
		
			<line fill="none" stroke="#7C7D7D" stroke-width="2" stroke-linecap="round" stroke-linejoin="round" stroke-miterlimit="10" x1="7.816" y1="27.612" x2="5.587" y2="25.383"/>
	</g>
</g>
</svg>
