<?xml version="1.0" encoding="utf-8"?>
<!-- Generator: Adobe Illustrator 16.0.0, SVG Export Plug-In . SVG Version: 6.00 Build 0)  -->
<!DOCTYPE svg PUBLIC "-//W3C//DTD SVG 1.1//EN" "http://www.w3.org/Graphics/SVG/1.1/DTD/svg11.dtd">
<svg version="1.1" id="Layer_1" xmlns="http://www.w3.org/2000/svg" xmlns:xlink="http://www.w3.org/1999/xlink" x="0px" y="0px"
	 width="76.999px" height="45.063px" viewBox="-42.425 16.216 76.999 45.063" enable-background="new -42.425 16.216 76.999 45.063"
	 xml:space="preserve">
<g>
	<g>
		<path fill="#FFE502" d="M31.67,34.014l-7.322-3.661c0.886-0.759,1.392-1.894,1.392-3.094c0-2.272-1.828-4.101-4.105-4.101
			c-2.146,0-3.91,1.705-4.101,3.783l-0.376-0.185l0,0c-0.253-2.023-1.959-3.599-4.104-3.599c-0.756,0-1.453,0.188-2.082,0.566
			l-14.896-7.509l-14.958,7.509c-0.631-0.379-1.324-0.566-2.082-0.566c-2.083,0-3.851,1.575-4.104,3.599l-0.316,0.25
			c-0.188-2.144-1.955-3.784-4.101-3.784c-2.21-0.064-4.104,1.764-4.104,4.036c0,1.262,0.569,2.335,1.39,3.094l-7.258,3.661
			c-1.831,0.946-2.967,2.714-2.967,4.733c0,2.017,1.136,3.787,2.903,4.73l35.597,17.801L31.67,43.478
			c1.771-0.882,2.904-2.714,2.904-4.73C34.574,36.728,33.502,34.96,31.67,34.014z"/>
		<path fill="#FFFFFF" d="M21.634,24.42c1.581,0,2.845,1.264,2.845,2.839c0,1.074-0.567,1.959-1.453,2.462
			c-0.44,0.253-0.885,0.379-1.392,0.379c-0.374,0-0.69-0.062-1.008-0.19h-0.063c-0.125-0.063-0.25-0.124-0.377-0.188
			c-0.062,0-0.062,0-0.062-0.065c-0.697-0.438-1.138-1.196-1.203-2.017c0-0.127,0-0.191,0-0.314
			C18.798,25.745,20.124,24.42,21.634,24.42z"/>
		<path fill="#FFFFFF" d="M10.465,50.108h-28.716l-19.376-9.659c-0.632-0.313-1.01-0.943-1.01-1.702s0.378-1.388,1.073-1.705
			l13.759-6.881c0.757,0.759,1.767,1.203,2.904,1.203c2.271,0,4.102-1.831,4.102-4.105c0-0.188,0-0.379-0.063-0.566l0.443-0.253
			c-0.063,0.253-0.063,0.502-0.063,0.819c0,2.274,1.83,4.105,4.101,4.105c2.273,0,4.104-1.831,4.104-4.105
			c0-1.641-0.947-3.031-2.336-3.722l6.691-3.347l6.754,3.347c-1.388,0.629-2.338,2.081-2.338,3.722c0,2.274,1.832,4.105,4.105,4.105
			s4.102-1.831,4.102-4.105c0-0.252,0-0.566-0.065-0.819l0.444,0.253c0,0.188-0.062,0.379-0.062,0.566
			c0,2.274,1.829,4.105,4.102,4.105c1.135,0,2.146-0.444,2.901-1.203l13.758,6.881c0.636,0.317,1.074,0.946,1.074,1.705
			s-0.377,1.389-1.074,1.702L10.465,50.108z"/>
		<polygon fill="#FFFFFF" points="7.942,51.373 7.942,51.373 -3.925,57.3 -15.727,51.373 		"/>
		<path fill="#FFFFFF" d="M-25.509,28.459l0.567-0.314c0.063,0.314,0.189,0.629,0.316,0.943l-1.894,0.95l0,0
			C-26.015,29.655-25.699,29.088-25.509,28.459z"/>
		<path fill="#FFFFFF" d="M-12.446,24.42L-12.446,24.42c1.579,0,2.841,1.264,2.841,2.839c0,1.576-1.262,2.841-2.841,2.841
			c-1.578,0-2.84-1.265-2.84-2.841c0-0.632,0.189-1.199,0.569-1.705C-14.213,24.925-13.33,24.42-12.446,24.42z"/>
		<path fill="#FFFFFF" d="M6.931,25.618L6.931,25.618c0.379,0.503,0.567,1.074,0.567,1.706c0,1.576-1.261,2.837-2.837,2.837
			c-1.579,0-2.844-1.261-2.844-2.837c0-1.579,1.265-2.844,2.779-2.844h0.065C5.543,24.42,6.363,24.925,6.931,25.618z"/>
		<path fill="#FFFFFF" d="M18.669,30.1l-1.894-0.947c0.19-0.317,0.252-0.632,0.382-0.946l0.566,0.314
			C17.912,29.088,18.23,29.594,18.669,30.1z"/>
		<path fill="#FFFFFF" d="M13.117,24.42c1.135,0,2.081,0.632,2.522,1.579c0.191,0.376,0.314,0.819,0.314,1.26
			c0,0.127,0,0.188,0,0.319c-0.062,0.376-0.123,0.689-0.314,1.008c-0.188,0.379-0.506,0.755-0.82,1.008
			c-0.441,0.315-1.073,0.506-1.702,0.506c-1.579,0-2.84-1.265-2.84-2.841l0,0c0-0.44,0.126-0.884,0.314-1.26
			c0.126-0.315,0.379-0.568,0.633-0.821c0.375-0.379,0.881-0.632,1.387-0.697C12.803,24.48,12.926,24.42,13.117,24.42z"/>
		<path fill="#FFFFFF" d="M-3.925,17.665L9.959,24.61c-0.188,0.253-0.376,0.567-0.567,0.82l-1.767-0.885
			c-0.694-0.821-1.706-1.323-2.84-1.388L-3.925,18.8l-8.772,4.423c-1.136,0.062-2.146,0.629-2.84,1.388l-1.704,0.882
			c-0.126-0.314-0.316-0.567-0.569-0.882L-3.925,17.665z"/>
		<path fill="#FFFFFF" d="M-20.965,24.42c0.188,0,0.377,0,0.567,0.061c0.504,0.13,1.01,0.383,1.388,0.697
			c0.253,0.253,0.442,0.506,0.632,0.821c0.189,0.376,0.314,0.819,0.314,1.26l0,0c0,1.576-1.262,2.841-2.839,2.841
			c-0.632,0-1.2-0.19-1.706-0.566c-0.378-0.254-0.63-0.568-0.82-1.013c-0.188-0.314-0.251-0.629-0.314-1.009
			c0-0.126,0-0.188,0-0.317c0-0.438,0.126-0.882,0.251-1.258C-23.048,25.116-22.039,24.42-20.965,24.42z"/>
		<path fill="#FFFFFF" d="M-32.326,27.259c0-1.575,1.263-2.839,2.84-2.839c1.577,0,2.84,1.264,2.84,2.839c0,0.127,0,0.253,0,0.319
			c-0.126,0.881-0.63,1.64-1.326,2.077c-0.126,0.13-0.314,0.191-0.504,0.254c-0.316,0.129-0.632,0.19-1.01,0.19
			c-0.506,0-1.01-0.126-1.451-0.379C-31.759,29.279-32.326,28.333-32.326,27.259z"/>
		<path fill="#FFFFFF" d="M31.103,42.343L-3.925,59.829l-35.029-17.486c-1.325-0.69-2.208-2.017-2.208-3.596s0.82-2.905,2.208-3.596
			l8.078-4.039c0.443,0.188,0.883,0.252,1.39,0.252c0.126,0,0.252,0,0.377,0l-9.088,4.542c-1.071,0.567-1.704,1.642-1.704,2.841
			c0,1.196,0.695,2.27,1.767,2.837l34.208,17.11l34.271-17.172c1.069-0.567,1.769-1.641,1.769-2.837
			c0-1.203-0.699-2.276-1.769-2.844L21.198,31.3c0.122,0,0.25,0,0.436,0c0.507,0,0.951-0.065,1.392-0.254l8.077,4.041
			c1.388,0.693,2.207,2.02,2.207,3.599C33.31,40.326,32.49,41.652,31.103,42.343z"/>
	</g>
	<g>
		<circle fill="#FFE502" cx="-3.925" cy="27.261" r="4.103"/>
		<circle fill="#FFFFFF" cx="-3.925" cy="27.26" r="2.84"/>
	</g>
	<circle fill="#FFFFFF" stroke="#DDDDDD" stroke-miterlimit="10" cx="-29.296" cy="27.511" r="4.104"/>
	<circle fill="#FFFFFF" stroke="#DDDDDD" stroke-miterlimit="10" cx="-21.092" cy="27.511" r="4.104"/>
	<circle fill="#FFFFFF" stroke="#DDDDDD" stroke-miterlimit="10" cx="-12.256" cy="27.511" r="4.104"/>
	<circle fill="#FFFFFF" stroke="#DDDDDD" stroke-miterlimit="10" cx="-4.051" cy="27.511" r="4.104"/>
	<circle fill="#FFFFFF" stroke="#DDDDDD" stroke-miterlimit="10" cx="4.784" cy="27.511" r="4.104"/>
	<circle fill="#FFFFFF" stroke="#DDDDDD" stroke-miterlimit="10" cx="12.991" cy="27.511" r="4.104"/>
	<circle fill="#FFFFFF" stroke="#DDDDDD" stroke-miterlimit="10" cx="21.827" cy="27.511" r="4.104"/>
	<g>
		<text transform="matrix(1 0 0 1 -32.0962 29.9707)" fill="#EB1C24" font-family="'NotoSans'" font-size="6.3115">W</text>
	</g>
	<g>
		<text transform="matrix(1 0 0 1 -26.769 41.9785)" fill="#EB1C24" font-family="'NotoSans'" font-size="8.6777">LAS VEGAS</text>
	</g>
	<g>
		<text transform="matrix(1 0 0 1 -13.8716 47.6572)" fill="#2280C0" font-family="'NotoSans'" font-size="5.0492">NEVADA</text>
	</g>
	<g>
		<text transform="matrix(1 0 0 1 -22.9673 29.9707)" fill="#EB1C24" font-family="'NotoSans'" font-size="6.3115">E</text>
	</g>
	<g>
		<text transform="matrix(1 0 0 1 -13.9946 29.9707)" fill="#EB1C24" font-family="'NotoSans'" font-size="6.3115">L</text>
	</g>
	<g>
		<text transform="matrix(1 0 0 1 -6.0698 29.9707)" fill="#EB1C24" font-family="'NotoSans'" font-size="6.3115">C</text>
	</g>
	<g>
		<text transform="matrix(1 0 0 1 2.4253 29.9707)" fill="#EB1C24" font-family="'NotoSans'" font-size="6.3115">O</text>
	</g>
	<g>
		<text transform="matrix(1 0 0 1 10.5259 29.9707)" fill="#EB1C24" font-family="'NotoSans'" font-size="6.3115">M</text>
	</g>
	<g>
		<text transform="matrix(1 0 0 1 19.9512 29.9707)" fill="#EB1C24" font-family="'NotoSans'" font-size="6.3115">E</text>
	</g>
</g>
</svg>
