<?xml version="1.0" encoding="utf-8"?>
<!-- Generator: Adobe Illustrator 16.0.0, SVG Export Plug-In . SVG Version: 6.00 Build 0)  -->
<!DOCTYPE svg PUBLIC "-//W3C//DTD SVG 1.1//EN" "http://www.w3.org/Graphics/SVG/1.1/DTD/svg11.dtd">
<svg version="1.1" id="Layer_1" xmlns="http://www.w3.org/2000/svg" xmlns:xlink="http://www.w3.org/1999/xlink" x="0px" y="0px"
	 width="17.938px" height="17.938px" viewBox="0 0 17.938 17.938" enable-background="new 0 0 17.938 17.938" xml:space="preserve">
<g>
	<polygon fill="#A5B9DB" points="7.424,15.906 6.314,17.016 4.374,15.074 2.864,13.564 0.923,11.624 2.033,10.515 3.685,11.538 
		6.401,14.254 	"/>
	<polygon fill="#89A3CE" points="6.957,16.374 6.314,17.016 4.374,15.074 2.864,13.564 0.923,11.624 1.566,10.982 3.218,12.005 
		5.935,14.721 	"/>
	<g>
		<defs>
			<rect id="SVGID_1_" width="17.938" height="17.938"/>
		</defs>
		<clipPath id="SVGID_2_">
			<use xlink:href="#SVGID_1_"  overflow="visible"/>
		</clipPath>
		<path clip-path="url(#SVGID_2_)" fill="#F3F4F5" d="M14.226,8.47l0.392-0.392c0.175-0.174,0.46-0.174,0.634,0l0.477,0.476
			c0.174,0.174,0.174,0.46,0,0.635l-1.036,1.036"/>
		<path clip-path="url(#SVGID_2_)" fill="#F3F4F5" d="M15.093,11.726l0.317-0.316c0.175-0.175,0.459-0.175,0.634,0l0.477,0.475
			c0.174,0.175,0.174,0.459,0,0.634l-0.96,0.96"/>
		<path clip-path="url(#SVGID_2_)" fill="#F3F4F5" d="M7.714,3.247L8.75,2.211c0.175-0.174,0.46-0.174,0.634,0l0.476,0.476
			c0.175,0.174,0.175,0.46,0,0.634L9.468,3.713"/>
		<path clip-path="url(#SVGID_2_)" fill="#F3F4F5" d="M4.46,2.378l0.96-0.959c0.175-0.174,0.46-0.174,0.634,0L6.53,1.895
			c0.174,0.174,0.174,0.46,0,0.634L6.213,2.846"/>
		<polygon clip-path="url(#SVGID_2_)" fill="#A5B9DB" points="16.361,16.483 15.093,17.752 14.487,16.772 10.494,10.299 
			13.824,6.969 		"/>
		<polygon clip-path="url(#SVGID_2_)" fill="#A5B9DB" points="10.97,4.114 7.64,7.444 1.167,3.452 0.187,2.846 1.455,1.577 		"/>
		<polygon clip-path="url(#SVGID_2_)" fill="#DEE1E7" points="15.251,16.009 14.691,16.569 14.487,16.773 10.494,10.297 
			12.488,8.304 13.048,7.743 		"/>
		<polygon clip-path="url(#SVGID_2_)" fill="#DEE1E7" points="10.195,4.89 7.641,7.444 1.166,3.451 1.37,3.248 1.93,2.687 		"/>
		<polygon clip-path="url(#SVGID_2_)" fill="#F3F4F5" points="14.691,16.569 14.487,16.773 10.494,10.297 12.488,8.304 		"/>
		<polygon clip-path="url(#SVGID_2_)" fill="#F3F4F5" points="9.635,5.451 7.641,7.444 1.166,3.451 1.37,3.248 		"/>
		<path clip-path="url(#SVGID_2_)" fill="#CCD1DC" d="M17.688,1.163c-0.021,0.254-0.059,0.505-0.118,0.75
			c-0.04,0.167-0.089,0.333-0.144,0.495c-0.136,0.401-0.325,0.786-0.557,1.145C16.512,4.1,16.1,4.61,15.641,5.078l-8.414,8.573
			c-0.566,0.575-1.246,1.003-1.987,1.266c-0.56,0.197-1.15,0.298-1.75,0.301l-0.642-0.629c-0.004-0.292,0.013-0.583,0.058-0.87
			c0.16-1.082,0.655-2.098,1.44-2.897l8.415-8.57c0.46-0.468,0.962-0.889,1.503-1.256C14.618,0.756,15,0.56,15.398,0.416
			c0.16-0.058,0.325-0.109,0.491-0.152c0.244-0.064,0.494-0.107,0.748-0.132c0.284-0.029,0.563,0.069,0.768,0.27
			c0.092,0.09,0.164,0.196,0.212,0.312C17.677,0.855,17.702,1.008,17.688,1.163"/>
		<path clip-path="url(#SVGID_2_)" fill="#DEE1E7" d="M17.617,0.713c-0.017,0.09-0.034,0.178-0.056,0.266
			c-0.04,0.167-0.089,0.333-0.143,0.495c-0.137,0.401-0.326,0.786-0.559,1.145c-0.357,0.547-0.77,1.058-1.228,1.525l-8.415,8.573
			c-0.566,0.575-1.246,1.003-1.987,1.266c-0.559,0.196-1.15,0.299-1.751,0.3l-0.574-0.564c0.16-1.082,0.654-2.098,1.44-2.897
			l8.416-8.57c0.459-0.468,0.961-0.889,1.502-1.257c0.354-0.238,0.735-0.435,1.134-0.578c0.161-0.058,0.326-0.109,0.492-0.152
			c0.244-0.064,0.494-0.107,0.748-0.132c0.284-0.029,0.563,0.069,0.768,0.27C17.497,0.492,17.569,0.598,17.617,0.713"/>
		<path clip-path="url(#SVGID_2_)" fill="#A5B9DB" d="M2.191,15.747L2.191,15.747c-0.175-0.175-0.175-0.459,0-0.634l3.172-3.172
			c0.175-0.175,0.459-0.175,0.635,0c0.175,0.176,0.175,0.459,0,0.635l-3.172,3.171C2.651,15.922,2.367,15.922,2.191,15.747"/>
		<path clip-path="url(#SVGID_2_)" fill="#8288A1" d="M17.748,1.231c-0.022,0.254-0.063,0.504-0.125,0.749
			c-0.37-0.035-0.772-0.231-1.103-0.562c-0.331-0.331-0.527-0.733-0.563-1.103c0.244-0.062,0.495-0.103,0.749-0.125
			c0.284-0.026,0.563,0.075,0.765,0.277C17.674,0.669,17.774,0.947,17.748,1.231"/>
		<path clip-path="url(#SVGID_2_)" fill="#77CACB" d="M15.568,4.273L15.251,4.59c0.192-0.455-0.064-1.016-0.476-1.427
			c-0.41-0.411-0.972-0.667-1.427-0.475l0.317-0.317c0.524-0.525,1.22-0.367,1.744,0.158S16.094,3.748,15.568,4.273"/>
		<path clip-path="url(#SVGID_2_)" fill="#39426A" d="M17.604,0.335c-0.241-0.242-0.575-0.363-0.912-0.33
			c-0.268,0.023-0.529,0.066-0.777,0.129c-0.001,0-0.001,0-0.001,0c-0.001,0-0.001,0-0.002,0l0,0
			c-0.16,0.039-0.327,0.088-0.509,0.152c-0.409,0.143-0.807,0.341-1.181,0.589c-0.555,0.37-1.074,0.795-1.543,1.265l-1.765,1.765
			l-1.085-0.29l0.163-0.163c0.247-0.248,0.247-0.651,0-0.898L9.517,2.079c-0.239-0.239-0.659-0.239-0.899,0L7.659,3.038l-1.085-0.29
			l0.088-0.088C6.909,2.413,6.909,2.01,6.661,1.762L6.187,1.287c-0.24-0.24-0.659-0.24-0.898,0L4.404,2.17l-2.9-0.773
			C1.438,1.379,1.371,1.398,1.323,1.445L0.055,2.713c-0.04,0.041-0.061,0.097-0.054,0.154S0.04,2.975,0.089,3.004l0.977,0.604
			c0.002,0,0.002,0.002,0.003,0.003L7.34,7.479l-3.155,3.157c-0.202,0.201-0.386,0.419-0.552,0.649l-1.501-0.931
			c-0.074-0.045-0.169-0.034-0.23,0.028l-1.11,1.109c-0.073,0.073-0.073,0.192,0,0.264l1.875,1.875
			c-0.043,0.266-0.065,0.537-0.067,0.81l-0.539,0.54c-0.248,0.248-0.248,0.651,0,0.898c0.124,0.125,0.287,0.186,0.449,0.186
			c0.163,0,0.325-0.062,0.449-0.186l0.54-0.54c0.272-0.002,0.543-0.024,0.81-0.066l1.875,1.875c0.037,0.037,0.084,0.055,0.132,0.055
			s0.096-0.018,0.132-0.055l1.11-1.11c0.062-0.061,0.072-0.157,0.026-0.231l-0.93-1.501c0.23-0.167,0.449-0.351,0.65-0.551
			l3.155-3.157l3.869,6.272c0,0.001,0.002,0.001,0.003,0.002l0.603,0.978c0.03,0.048,0.081,0.08,0.138,0.087
			c0.007,0.001,0.014,0.001,0.021,0.001c0.05,0,0.097-0.02,0.132-0.055l1.269-1.268c0.048-0.047,0.065-0.117,0.049-0.181
			l-0.773-2.901l0.884-0.883c0.119-0.12,0.186-0.28,0.186-0.449c0-0.17-0.066-0.33-0.186-0.45l-0.476-0.476
			c-0.248-0.248-0.651-0.248-0.899,0l-0.088,0.088L14.9,10.279l0.959-0.958c0.119-0.12,0.186-0.279,0.186-0.449
			c0-0.17-0.066-0.33-0.186-0.449l-0.476-0.476c-0.248-0.248-0.651-0.248-0.898,0l-0.163,0.163l-0.29-1.085l1.766-1.765
			c0.469-0.469,0.895-0.988,1.265-1.543c0.248-0.374,0.445-0.771,0.588-1.18c0.064-0.183,0.115-0.351,0.152-0.51
			c0.038-0.15,0.067-0.306,0.091-0.462c0.016-0.104,0.03-0.209,0.04-0.315C17.966,0.91,17.846,0.577,17.604,0.335 M16.295,0.437
			c0.032-0.006,0.065-0.012,0.099-0.017c0.109-0.018,0.219-0.032,0.331-0.042c0.229-0.021,0.452,0.06,0.614,0.222
			c0.163,0.163,0.244,0.387,0.222,0.616c-0.01,0.111-0.023,0.221-0.041,0.33c-0.006,0.033-0.012,0.065-0.018,0.098
			c-0.008,0.042-0.017,0.083-0.026,0.124c-0.287-0.068-0.58-0.238-0.823-0.481c-0.243-0.244-0.413-0.537-0.481-0.824
			C16.212,0.454,16.253,0.444,16.295,0.437 M1.467,3.416l0.52-0.521l7.847,2.091L7.612,7.208L1.467,3.416z M8.882,2.343
			c0.099-0.098,0.271-0.098,0.37,0l0.476,0.476c0.102,0.102,0.102,0.268,0,0.37L9.412,3.505L8.076,3.149L8.882,2.343z M5.552,1.551
			c0.098-0.098,0.272-0.098,0.37,0l0.476,0.476c0.102,0.102,0.102,0.268,0,0.37L6.156,2.637L4.821,2.281L5.552,1.551z M1.512,1.785
			l9.097,2.426l-0.47,0.47L1.979,2.506C1.915,2.489,1.846,2.508,1.8,2.555L1.14,3.214L0.486,2.811L1.512,1.785z M1.188,11.624
			l0.873-0.873l1.364,0.845c-0.306,0.491-0.534,1.031-0.672,1.593L1.188,11.624z M2.694,15.615c-0.103,0.102-0.269,0.102-0.371,0
			c-0.102-0.102-0.102-0.269,0-0.37l0.595-0.594l0,0l2.577-2.577c0.052-0.051,0.118-0.077,0.186-0.077s0.134,0.025,0.185,0.077
			c0.103,0.102,0.103,0.269,0,0.37l-2.577,2.577l-0.001,0.001L2.694,15.615z M7.188,15.879l-0.874,0.873l-1.565-1.565
			c0.163-0.04,0.324-0.084,0.483-0.14c0.389-0.134,0.763-0.313,1.111-0.531L7.188,15.879z M10.73,10.326l2.222-2.221l2.091,7.846
			l-0.521,0.521L10.73,10.326z M15.542,11.541c0.102-0.102,0.269-0.102,0.37,0l0.476,0.476c0.049,0.049,0.076,0.114,0.076,0.185
			c0,0.07-0.027,0.136-0.076,0.184l-0.73,0.731l-0.356-1.335L15.542,11.541z M14.749,8.211c0.102-0.102,0.269-0.102,0.37,0
			l0.477,0.476c0.048,0.049,0.075,0.115,0.075,0.185s-0.027,0.136-0.075,0.185l-0.807,0.806l-0.355-1.335L14.749,8.211z
			 M16.153,16.427l-1.025,1.026l-0.403-0.654l0.659-0.66c0.047-0.047,0.065-0.115,0.048-0.179L13.258,7.8l0.469-0.47L16.153,16.427z
			 M16.752,3.51c-0.357,0.534-0.767,1.034-1.219,1.486l-1.841,1.841l-0.775,0.775c0,0,0,0,0,0l-2.555,2.554l0,0L7.038,13.49
			c-0.539,0.54-1.205,0.957-1.928,1.203c-0.396,0.136-0.806,0.222-1.223,0.257l2.242-2.242c0.247-0.248,0.247-0.65,0-0.898
			c-0.248-0.248-0.651-0.248-0.898,0L2.99,14.05c0.101-1.182,0.618-2.309,1.458-3.15l3.324-3.323c0,0,0,0,0,0l2.554-2.554
			c0,0,0,0,0.001,0l0.775-0.775l1.841-1.841c0.451-0.452,0.951-0.861,1.485-1.218c0.348-0.23,0.717-0.415,1.097-0.547
			c0.101-0.035,0.192-0.064,0.284-0.091c0.085,0.355,0.287,0.71,0.578,1.001s0.646,0.494,1.001,0.579
			c-0.026,0.091-0.055,0.184-0.091,0.283C17.166,2.793,16.981,3.162,16.752,3.51"/>
		<path clip-path="url(#SVGID_2_)" fill="#39426A" d="M13.534,2.238l-0.318,0.317c-0.063,0.063-0.072,0.162-0.022,0.236
			s0.146,0.103,0.228,0.068c0.409-0.173,0.914,0.126,1.223,0.436c0.309,0.309,0.607,0.814,0.436,1.223
			c-0.034,0.082-0.007,0.178,0.067,0.228c0.032,0.021,0.068,0.032,0.104,0.032c0.049,0,0.097-0.019,0.133-0.055L15.7,4.405
			c0.554-0.553,0.49-1.36-0.158-2.008S14.087,1.685,13.534,2.238 M15.491,4.083c-0.06-0.396-0.309-0.777-0.584-1.052
			c-0.274-0.275-0.655-0.524-1.051-0.583c0.476-0.414,1.041-0.167,1.421,0.213C15.658,3.041,15.903,3.606,15.491,4.083"/>
		<path clip-path="url(#SVGID_2_)" fill="#F3F4F5" d="M5.838,11.07l-0.02-0.02c-0.182-0.182-0.182-0.475,0-0.657l6.724-6.724
			c0.182-0.182,0.476-0.182,0.657,0l0.02,0.02c0.182,0.182,0.182,0.476,0,0.657L6.495,11.07C6.313,11.252,6.02,11.252,5.838,11.07"
			/>
	</g>
</g>
</svg>
