<?xml version="1.0" encoding="utf-8"?>
<!-- Generator: Adobe Illustrator 16.0.0, SVG Export Plug-In . SVG Version: 6.00 Build 0)  -->
<!DOCTYPE svg PUBLIC "-//W3C//DTD SVG 1.1//EN" "http://www.w3.org/Graphics/SVG/1.1/DTD/svg11.dtd">
<svg version="1.1" id="Layer_1" xmlns="http://www.w3.org/2000/svg" xmlns:xlink="http://www.w3.org/1999/xlink" x="0px" y="0px"
	 width="75.829px" height="44.328px" viewBox="0 0 75.829 44.328" enable-background="new 0 0 75.829 44.328" xml:space="preserve">
<g>
	<path fill="#FFE500" d="M72.957,17.527l-7.222-3.611c0.851-0.74,1.392-1.833,1.392-3.046c0-2.231-1.814-4.04-4.04-4.04
		c-2.132,0-3.878,1.653-4.027,3.748l-0.348-0.18h-0.007c-0.229-2.008-1.946-3.568-4.009-3.568c-0.74,0-1.436,0.199-2.033,0.547
		L37.914,0L23.159,7.377c-0.597-0.348-1.287-0.547-2.027-0.547c-2.069,0-3.779,1.56-4.009,3.568l-0.354,0.174
		c-0.156-2.095-1.902-3.742-4.028-3.742c-2.231,0-4.04,1.809-4.04,4.04c0,1.218,0.541,2.306,1.393,3.046l-7.229,3.611
		C1.094,18.41,0,20.188,0,22.164s1.094,3.754,2.865,4.643l35.049,17.521l35.042-17.521c1.771-0.888,2.872-2.666,2.872-4.643
		S74.728,18.41,72.957,17.527z"/>
	<path fill="#FFFFFF" d="M63.086,8.074c1.541,0,2.797,1.255,2.797,2.797c0,1.032-0.565,1.939-1.404,2.418
		c-0.41,0.243-0.883,0.379-1.393,0.379c-0.36,0-0.709-0.068-1.025-0.199c-0.025-0.006-0.043-0.012-0.063-0.025
		c-0.137-0.056-0.267-0.125-0.391-0.205c-0.031-0.012-0.057-0.031-0.088-0.05c-0.658-0.447-1.112-1.163-1.211-1.989
		c-0.014-0.106-0.02-0.218-0.02-0.33C60.29,9.329,61.54,8.074,63.086,8.074z"/>
	<path fill="#FFFFFF" d="M52.063,33.357H23.766L4.711,23.83c-0.646-0.317-1.032-0.944-1.032-1.666s0.385-1.342,1.032-1.666
		l13.556-6.781c0.734,0.74,1.747,1.193,2.865,1.193c2.226,0,4.04-1.815,4.04-4.04c0-0.199-0.012-0.392-0.043-0.578l0.435-0.218
		c-0.056,0.261-0.081,0.522-0.081,0.795c0,2.225,1.809,4.04,4.04,4.04c2.225,0,4.04-1.815,4.04-4.04
		c0-1.609-0.945-2.996-2.306-3.642l6.657-3.332l6.657,3.325c-1.367,0.646-2.306,2.039-2.306,3.648c0,2.225,1.809,4.04,4.04,4.04
		c2.225,0,4.039-1.815,4.039-4.04c0-0.273-0.024-0.535-0.074-0.795l0.43,0.218c-0.031,0.186-0.044,0.379-0.044,0.578
		c0,2.225,1.809,4.04,4.04,4.04c1.113,0,2.125-0.454,2.859-1.193l13.556,6.781c0.646,0.323,1.032,0.944,1.032,1.666
		s-0.386,1.349-1.032,1.666L52.063,33.357z"/>
	<polygon fill="#FFFFFF" points="49.576,34.601 49.575,34.601 37.914,40.431 26.252,34.601 	"/>
	<path fill="#FFFFFF" d="M16.608,12.045l0.584-0.292c0.075,0.336,0.186,0.653,0.342,0.945l-1.84,0.919l-0.006,0.006
		C16.104,13.183,16.428,12.642,16.608,12.045z"/>
	<path fill="#FFFFFF" d="M29.523,8.074h0.038c1.522,0.019,2.759,1.268,2.759,2.797c0,1.542-1.255,2.797-2.797,2.797
		c-1.547,0-2.797-1.255-2.797-2.797c0-0.615,0.199-1.193,0.547-1.653C27.777,8.527,28.597,8.074,29.523,8.074z"/>
	<path fill="#FFFFFF" d="M48.548,9.211c0,0,0.007,0.006,0.013,0.006c0.336,0.46,0.541,1.038,0.541,1.653
		c0,1.542-1.256,2.797-2.797,2.797c-1.548,0-2.797-1.255-2.797-2.797c0-1.529,1.23-2.778,2.76-2.797h0.037
		C47.225,8.074,48.045,8.521,48.548,9.211z"/>
	<path fill="#FFFFFF" d="M60.128,13.618l-1.84-0.919c0.161-0.292,0.273-0.609,0.348-0.945l0.585,0.292
		C59.401,12.635,59.717,13.177,60.128,13.618z"/>
	<path fill="#FFFFFF" d="M54.696,8.074c1.1,0,2.057,0.64,2.506,1.572c0.191,0.373,0.291,0.783,0.291,1.225
		c0,0.105-0.006,0.205-0.012,0.305c-0.045,0.348-0.145,0.671-0.299,0.969c-0.193,0.385-0.479,0.721-0.827,0.976
		c-0.46,0.342-1.038,0.547-1.659,0.547c-1.541,0-2.785-1.243-2.797-2.778v-0.019c0-0.441,0.1-0.852,0.285-1.225
		c0.144-0.305,0.349-0.584,0.604-0.813c0.373-0.355,0.846-0.603,1.374-0.709C54.334,8.093,54.509,8.074,54.696,8.074z"/>
	<path fill="#FFFFFF" d="M37.914,1.392L51.62,8.248c-0.212,0.254-0.398,0.535-0.548,0.839l-1.709-0.852
		c-0.684-0.795-1.672-1.318-2.784-1.393l-8.665-4.332L29.25,6.843c-1.119,0.075-2.107,0.597-2.791,1.393l-1.703,0.857
		c-0.149-0.304-0.336-0.59-0.553-0.845L37.914,1.392z"/>
	<path fill="#FFFFFF" d="M21.132,8.074c0.181,0,0.361,0.019,0.535,0.05c0.528,0.106,1.001,0.354,1.374,0.709
		c0.249,0.229,0.454,0.509,0.597,0.813c0.192,0.373,0.292,0.783,0.292,1.225v0.019c-0.012,1.536-1.261,2.778-2.797,2.778
		c-0.627,0-1.199-0.205-1.659-0.547c-0.348-0.255-0.634-0.591-0.827-0.976c-0.155-0.298-0.254-0.621-0.298-0.969
		c-0.006-0.1-0.012-0.199-0.012-0.305c0-0.435,0.1-0.852,0.28-1.218C19.063,8.72,20.02,8.074,21.132,8.074z"/>
	<path fill="#FFFFFF" d="M9.945,10.871c0-1.542,1.25-2.797,2.797-2.797c1.542,0,2.797,1.255,2.797,2.797
		c0,0.112-0.006,0.224-0.019,0.33c-0.1,0.858-0.596,1.597-1.293,2.032c-0.149,0.1-0.31,0.18-0.484,0.242
		c-0.311,0.125-0.647,0.193-1.001,0.193c-0.51,0-0.988-0.136-1.398-0.379C10.504,12.81,9.945,11.902,9.945,10.871z"/>
	<path fill="#FFFFFF" d="M72.404,25.694l-34.49,17.241L3.418,25.694c-1.361-0.684-2.175-2.001-2.175-3.53
		c0-1.523,0.814-2.847,2.175-3.524l7.95-3.972c0.429,0.156,0.889,0.243,1.374,0.243c0.137,0,0.273-0.006,0.404-0.019l-8.987,4.494
		c-1.063,0.528-1.722,1.598-1.722,2.778c0,1.187,0.659,2.25,1.722,2.778l33.756,16.881l33.75-16.881
		c1.063-0.528,1.721-1.591,1.721-2.778c0-1.181-0.658-2.25-1.721-2.778l-8.988-4.494c0.131,0.012,0.273,0.019,0.41,0.019
		c0.479,0,0.945-0.087,1.368-0.243l7.949,3.972c1.36,0.677,2.181,2.001,2.181,3.524C74.584,23.693,73.764,25.011,72.404,25.694z"/>
</g>
<g>
	<path fill="#FFE500" d="M37.914,14.911c2.226,0,4.04-1.815,4.04-4.04c0-2.231-1.814-4.04-4.04-4.04c-2.231,0-4.04,1.809-4.04,4.04
		C33.874,13.096,35.683,14.911,37.914,14.911z"/>
	<path fill="#FFFFFF" d="M37.914,8.074c1.542,0,2.797,1.255,2.797,2.797s-1.255,2.797-2.797,2.797c-1.547,0-2.796-1.255-2.796-2.797
		S36.367,8.074,37.914,8.074z"/>
</g>
<circle fill="#FFFFFF" stroke="#DEDEDD" stroke-miterlimit="10" cx="12.922" cy="11.076" r="4.04"/>
<circle fill="#FFFFFF" stroke="#DEDEDD" stroke-miterlimit="10" cx="21.002" cy="11.076" r="4.04"/>
<circle fill="#FFFFFF" stroke="#DEDEDD" stroke-miterlimit="10" cx="29.704" cy="11.076" r="4.04"/>
<circle fill="#FFFFFF" stroke="#DEDEDD" stroke-miterlimit="10" cx="37.784" cy="11.076" r="4.04"/>
<circle fill="#FFFFFF" stroke="#DEDEDD" stroke-miterlimit="10" cx="46.486" cy="11.076" r="4.04"/>
<circle fill="#FFFFFF" stroke="#DEDEDD" stroke-miterlimit="10" cx="54.565" cy="11.076" r="4.04"/>
<circle fill="#FFFFFF" stroke="#DEDEDD" stroke-miterlimit="10" cx="63.267" cy="11.076" r="4.04"/>
<g>
	<g>
		<path fill="#EA2327" d="M10.28,8.95h0.745l0.429,2.379l0.243,1.466h0.024c0.099-0.491,0.205-0.981,0.31-1.466l0.591-2.379h0.633
			l0.596,2.379c0.106,0.479,0.205,0.969,0.311,1.466h0.031c0.075-0.497,0.156-0.988,0.23-1.466l0.435-2.379h0.689l-0.901,4.572
			h-0.888l-0.615-2.542c-0.081-0.36-0.149-0.702-0.211-1.049h-0.031c-0.062,0.348-0.136,0.689-0.211,1.049l-0.603,2.542h-0.869
			L10.28,8.95z"/>
	</g>
</g>
<g>
	<g>
		<path fill="#EA2327" d="M16.17,19.02h1.265v5.264h2.563v1.059H16.17V19.02z"/>
		<path fill="#EA2327" d="M24.023,23.72h-2.051l-0.444,1.623h-1.282l2.025-6.323h1.487l2.033,6.323h-1.324L24.023,23.72z
			 M23.75,22.737l-0.188-0.691c-0.197-0.658-0.367-1.385-0.556-2.068h-0.034c-0.163,0.692-0.351,1.41-0.538,2.068l-0.188,0.691
			H23.75z"/>
		<path fill="#EA2327" d="M26.118,24.54l0.727-0.871c0.453,0.418,1.051,0.7,1.607,0.7c0.658,0,1.008-0.282,1.008-0.726
			c0-0.47-0.385-0.615-0.949-0.854l-0.846-0.358c-0.641-0.265-1.282-0.778-1.282-1.701c0-1.034,0.906-1.828,2.188-1.828
			c0.734,0,1.469,0.29,1.982,0.812l-0.642,0.795c-0.401-0.333-0.82-0.521-1.341-0.521c-0.556,0-0.915,0.248-0.915,0.667
			c0,0.453,0.453,0.615,0.991,0.829l0.829,0.351c0.769,0.316,1.274,0.803,1.274,1.717c0,1.034-0.863,1.914-2.325,1.914
			C27.579,25.463,26.733,25.13,26.118,24.54z"/>
		<path fill="#EA2327" d="M32.988,19.02h1.325l0.837,3.076c0.197,0.701,0.325,1.333,0.53,2.043h0.043
			c0.196-0.709,0.341-1.342,0.539-2.043l0.82-3.076h1.282l-1.939,6.323h-1.504L32.988,19.02z"/>
		<path fill="#EA2327" d="M39.09,19.02h3.879v1.051h-2.615v1.461h2.222v1.06h-2.222v1.692h2.708v1.059H39.09V19.02z"/>
		<path fill="#EA2327" d="M44.03,22.208c0-2.084,1.35-3.307,3.033-3.307c0.914,0,1.547,0.393,1.957,0.812l-0.676,0.803
			c-0.307-0.299-0.666-0.53-1.238-0.53c-1.051,0-1.786,0.82-1.786,2.179c0,1.375,0.633,2.204,1.872,2.204
			c0.307,0,0.615-0.085,0.794-0.239v-1.248h-1.119v-1.034h2.247v2.854c-0.427,0.419-1.17,0.76-2.051,0.76
			C45.336,25.463,44.03,24.318,44.03,22.208z"/>
		<path fill="#EA2327" d="M53.37,23.72h-2.051l-0.444,1.623h-1.281l2.024-6.323h1.486l2.035,6.323h-1.325L53.37,23.72z
			 M53.096,22.737l-0.188-0.691c-0.197-0.658-0.367-1.385-0.557-2.068h-0.033c-0.162,0.692-0.351,1.41-0.538,2.068l-0.188,0.691
			H53.096z"/>
		<path fill="#EA2327" d="M55.463,24.54l0.727-0.871c0.453,0.418,1.051,0.7,1.607,0.7c0.657,0,1.008-0.282,1.008-0.726
			c0-0.47-0.385-0.615-0.949-0.854L57.01,22.43c-0.641-0.265-1.281-0.778-1.281-1.701c0-1.034,0.905-1.828,2.188-1.828
			c0.734,0,1.469,0.29,1.982,0.812l-0.641,0.795c-0.402-0.333-0.821-0.521-1.342-0.521c-0.556,0-0.914,0.248-0.914,0.667
			c0,0.453,0.452,0.615,0.99,0.829l0.83,0.351c0.769,0.316,1.273,0.803,1.273,1.717c0,1.034-0.864,1.914-2.325,1.914
			C56.924,25.463,56.079,25.13,55.463,24.54z"/>
	</g>
</g>
<g>
	<g>
		<path fill="#2381C0" d="M28.543,27.26h0.75l1.069,1.958l0.368,0.795h0.024c-0.039-0.383-0.094-0.869-0.094-1.287V27.26h0.696
			v3.678h-0.746l-1.063-1.968l-0.373-0.79H29.15c0.035,0.397,0.09,0.859,0.09,1.282v1.476h-0.696V27.26z"/>
		<path fill="#2381C0" d="M32.268,27.26h2.256v0.611h-1.521v0.85h1.292v0.616h-1.292v0.984h1.575v0.616h-2.311V27.26z"/>
		<path fill="#2381C0" d="M34.849,27.26h0.77l0.487,1.789c0.115,0.408,0.189,0.775,0.308,1.188h0.025
			c0.114-0.412,0.199-0.78,0.313-1.188l0.477-1.789h0.746l-1.129,3.678h-0.875L34.849,27.26z"/>
		<path fill="#2381C0" d="M40.029,29.993h-1.193l-0.258,0.944h-0.745l1.178-3.678h0.865l1.183,3.678h-0.77L40.029,29.993z
			 M39.87,29.421l-0.11-0.402c-0.114-0.383-0.213-0.805-0.322-1.203h-0.021c-0.095,0.403-0.204,0.82-0.313,1.203l-0.109,0.402H39.87
			z"/>
		<path fill="#2381C0" d="M41.492,27.26H42.5c1.123,0,1.818,0.582,1.818,1.824c0,1.238-0.695,1.854-1.778,1.854h-1.049V27.26z
			 M42.456,30.346c0.686,0,1.113-0.368,1.113-1.263c0-0.899-0.428-1.237-1.113-1.237h-0.229v2.5H42.456z"/>
		<path fill="#2381C0" d="M46.707,29.993h-1.192l-0.259,0.944H44.51l1.178-3.678h0.865l1.183,3.678h-0.771L46.707,29.993z
			 M46.547,29.421l-0.109-0.402c-0.113-0.383-0.213-0.805-0.322-1.203h-0.021c-0.095,0.403-0.204,0.82-0.313,1.203l-0.108,0.402
			H46.547z"/>
	</g>
</g>
<g>
	<g>
		<path fill="#EA2327" d="M19.74,8.95h2.703v0.603h-1.982v1.273h1.677v0.609h-1.677v1.478h2.049v0.609H19.74V8.95z"/>
	</g>
</g>
<g>
	<g>
		<path fill="#EA2327" d="M28.575,8.95h0.721v3.963h1.932v0.609h-2.653V8.95z"/>
	</g>
</g>
<g>
	<g>
		<path fill="#EA2327" d="M36.13,11.248c0-1.491,0.907-2.386,2.063-2.386c0.572,0,1.019,0.274,1.299,0.578L39.099,9.9
			c-0.236-0.243-0.521-0.41-0.894-0.41c-0.789,0-1.336,0.658-1.336,1.733c0,1.087,0.509,1.752,1.317,1.752
			c0.417,0,0.739-0.187,1.012-0.484l0.386,0.453c-0.367,0.422-0.833,0.658-1.423,0.658C37.012,13.602,36.13,12.745,36.13,11.248z"/>
	</g>
</g>
<g>
	<g>
		<path fill="#EA2327" d="M44.496,11.217c0-1.472,0.813-2.354,1.988-2.354s1.994,0.882,1.994,2.354s-0.819,2.385-1.994,2.385
			S44.496,12.689,44.496,11.217z M47.739,11.217c0-1.074-0.497-1.727-1.255-1.727s-1.249,0.652-1.249,1.727
			c0,1.075,0.491,1.758,1.249,1.758S47.739,12.292,47.739,11.217z"/>
	</g>
</g>
<g>
	<g>
		<path fill="#EA2327" d="M52.719,8.95h0.826l0.839,2.311c0.104,0.305,0.198,0.615,0.304,0.925h0.031
			c0.105-0.31,0.192-0.621,0.298-0.925l0.827-2.311h0.832v4.572h-0.671V11.26c0-0.41,0.056-1,0.093-1.416h-0.025L55.707,10.9
			l-0.795,2.18h-0.447l-0.802-2.18l-0.359-1.056h-0.025c0.031,0.416,0.088,1.006,0.088,1.416v2.262h-0.646V8.95z"/>
	</g>
</g>
<g>
	<g>
		<path fill="#EA2327" d="M62.004,8.95h2.703v0.603h-1.982v1.273h1.678v0.609h-1.678v1.478h2.05v0.609h-2.771V8.95z"/>
	</g>
</g>
</svg>
