<?xml version="1.0" encoding="utf-8"?>
<!-- Generator: Adobe Illustrator 16.0.0, SVG Export Plug-In . SVG Version: 6.00 Build 0)  -->
<!DOCTYPE svg PUBLIC "-//W3C//DTD SVG 1.1//EN" "http://www.w3.org/Graphics/SVG/1.1/DTD/svg11.dtd">
<svg version="1.1" id="iconmonstr" xmlns="http://www.w3.org/2000/svg" xmlns:xlink="http://www.w3.org/1999/xlink" x="0px" y="0px"
	 width="27.184px" height="27.402px" viewBox="0 0 27.184 27.402" enable-background="new 0 0 27.184 27.402" xml:space="preserve">
<path id="magnifier-2" fill="#0F0F0F" d="M27.184,24.714l-7.085-7.085c1.334-1.833,2.121-4.086,2.121-6.519
	C22.22,4.984,17.236,0,11.109,0C4.984,0,0,4.984,0,11.11c0,6.125,4.984,11.109,11.109,11.109c2.322,0,4.479-0.716,6.266-1.939
	l7.121,7.122L27.184,24.714z M3.258,11.11c0-4.33,3.522-7.852,7.852-7.852c4.33,0,7.853,3.522,7.853,7.852
	c0,4.329-3.522,7.851-7.853,7.851C6.78,18.961,3.258,15.438,3.258,11.11z"/>
</svg>
