<?xml version="1.0" encoding="utf-8"?>
<!-- Generator: Adobe Illustrator 16.0.0, SVG Export Plug-In . SVG Version: 6.00 Build 0)  -->
<!DOCTYPE svg PUBLIC "-//W3C//DTD SVG 1.1//EN" "http://www.w3.org/Graphics/SVG/1.1/DTD/svg11.dtd">
<svg version="1.1" id="OBJECTS" xmlns="http://www.w3.org/2000/svg" xmlns:xlink="http://www.w3.org/1999/xlink" x="0px" y="0px"
	 width="30.595px" height="30.596px" viewBox="0 0 30.595 30.596" enable-background="new 0 0 30.595 30.596" xml:space="preserve">
<linearGradient id="SVGID_1_" gradientUnits="userSpaceOnUse" x1="26.5098" y1="0.3477" x2="-0.5189" y2="36.3859">
	<stop  offset="0" style="stop-color:#F9D700"/>
	<stop  offset="0.5541" style="stop-color:#F8CB00"/>
	<stop  offset="1" style="stop-color:#F6BE00"/>
</linearGradient>
<path fill="url(#SVGID_1_)" d="M30.595,15.298c0,1.296-1.764,2.345-2.083,3.541c-0.331,1.237,0.663,3.024,0.035,4.108
	c-0.636,1.101-2.687,1.129-3.579,2.021c-0.893,0.891-0.921,2.942-2.02,3.578c-1.084,0.629-2.872-0.367-4.109-0.035
	c-1.196,0.319-2.244,2.084-3.541,2.084c-1.298,0-2.346-1.765-3.542-2.084c-1.238-0.332-3.025,0.664-4.109,0.034
	c-1.099-0.635-1.128-2.687-2.021-3.578c-0.892-0.892-2.943-0.92-3.579-2.021c-0.627-1.084,0.367-2.871,0.036-4.108
	C1.764,17.643,0,16.594,0,15.298c0-1.297,1.764-2.346,2.083-3.542c0.332-1.238-0.663-3.024-0.036-4.109
	c0.636-1.1,2.688-1.128,3.58-2.021c0.892-0.892,0.921-2.942,2.02-3.578c1.084-0.628,2.872,0.366,4.109,0.035
	C12.952,1.764,14,0,15.298,0c1.297,0,2.345,1.764,3.541,2.083c1.238,0.331,3.025-0.663,4.109-0.035
	c1.099,0.636,1.128,2.687,2.021,3.578c0.892,0.893,2.943,0.921,3.579,2.021c0.627,1.084-0.367,2.87-0.036,4.108
	C28.832,12.952,30.595,14.001,30.595,15.298z"/>
<polyline fill="none" stroke="#FFFFFF" stroke-width="2" stroke-miterlimit="10" points="7.135,14.699 13.568,20.734 23.46,9.86 "/>
</svg>
