<?xml version="1.0" encoding="utf-8"?>
<!-- Generator: Adobe Illustrator 16.0.0, SVG Export Plug-In . SVG Version: 6.00 Build 0)  -->
<!DOCTYPE svg PUBLIC "-//W3C//DTD SVG 1.1//EN" "http://www.w3.org/Graphics/SVG/1.1/DTD/svg11.dtd">
<svg version="1.1" id="Layer_1" xmlns="http://www.w3.org/2000/svg" xmlns:xlink="http://www.w3.org/1999/xlink" x="0px" y="0px"
	 width="38.167px" height="52.045px" viewBox="0 0 38.167 52.045" enable-background="new 0 0 38.167 52.045" xml:space="preserve">
<g>
	<path fill="#DEDEDE" d="M23.42,40.422v11.624h-8.674V40.422l0.867-0.521v-3.47c0,1.917,1.553,3.47,3.47,3.47
		c1.917,0,3.47-1.553,3.47-3.47v3.47L23.42,40.422z"/>
	<path fill="#5EA7FF" d="M11.276,42.503l3.47-2.082v11.624H0l2.576-9.264c1-3.597,4.133-6.35,8.857-6.35
		C11.215,36.994,11.276,36.854,11.276,42.503z"/>
	<path fill="#5EA7FF" d="M38.167,52.045H23.42V40.422l3.47,2.082v-5.204c0-1.041-0.5-0.868,0.347-0.868
		c3.895,0,7.313,2.602,8.354,6.35L38.167,52.045z"/>
	<path fill="#204A8E" d="M15.613,34.697v5.205c-1.462,0.878-1.727,1.036-4.337,2.602v-5.204c0-1.406,1.132-2.603,2.603-2.603H15.613
		z"/>
	<path fill="#204A8E" d="M26.89,37.299v5.204c-2.61-1.566-2.876-1.726-4.337-2.602v-5.205h1.734
		C25.762,34.697,26.89,35.897,26.89,37.299z"/>
	<path fill="#EFDDB9" d="M22.553,33.283v3.149c0,1.917-1.553,3.47-3.47,3.47c-1.917,0-3.47-1.553-3.47-3.47v-3.149
		C17.853,34.012,20.311,34.013,22.553,33.283z"/>
	<path fill="#FFEBC0" d="M30.359,18.615c0,3.91,0.144,5.286-0.546,7.408c-3.327,10.372-18.129,10.386-21.46,0
		c-0.707-2.174-0.546-3.621-0.546-7.408c2.017-1.16,1.734-3.13,1.734-4.736h19.083C28.625,15.54,28.36,17.465,30.359,18.615z"/>
	<path fill="#DEDEDE" d="M32.095,7.807c-27.032,0-26.023-0.087-26.023,0C6.072,3.495,9.567,0,13.879,0h10.409
		C28.6,0,32.095,3.496,32.095,7.807z"/>
	<polygon fill="#ECECEC" points="38.167,13.879 0,13.879 6.072,7.807 32.095,7.807 	"/>
	<path fill="#EFDDB9" d="M33.83,22.553c0,1.916-1.558,3.469-3.47,3.469h-0.546c0.678-2.084,0.546-3.437,0.546-6.939
		C32.276,19.083,33.83,20.636,33.83,22.553z"/>
	<path fill="#EFDDB9" d="M8.353,26.022H7.807c-1.917,0-3.47-1.552-3.47-3.469c0-1.916,1.558-3.47,3.47-3.47
		C7.807,22.415,7.666,23.909,8.353,26.022z"/>
	<path fill="#282828" d="M9.542,13.879c0,1.661,0.265,3.586-1.734,4.736c-0.512,0.295-1.102,0.468-1.735,0.468v-5.204H9.542z"/>
	<path fill="#282828" d="M32.095,13.879v5.204c-0.633,0-1.224-0.173-1.735-0.468c-2.017-1.16-1.734-3.13-1.734-4.736H32.095z"/>
	<g>
		<g>
			<path fill="#BD7575" d="M16.032,27.519c0.339-0.339,0.888-0.339,1.227,0c0.974,0.975,2.676,0.975,3.65,0
				c0.81-0.811,2.039,0.414,1.226,1.227C19.261,31.619,14.694,28.855,16.032,27.519z"/>
		</g>
	</g>
	<g>
		<path fill="#FCC24C" d="M36.258,51.698h-1.041V32.962h1.041c0.572,0,1.041,0.469,1.041,1.041v16.654
			C37.299,51.23,36.831,51.698,36.258,51.698z"/>
		<path fill="#ECECEC" d="M32.095,50.657c-0.573,0-1.041,0.468-1.041,1.041h-3.123c-0.573,0-1.041-0.468-1.041-1.041V34.003
			c0-0.572,0.468-1.041,1.041-1.041h7.286v18.736h-2.082C33.136,51.125,32.667,50.657,32.095,50.657z"/>
		<path fill="#ED9111" d="M37.299,40.248h-3.644c-0.688,0-0.687-1.041,0-1.041h3.644V40.248z"/>
		<g>
			<path fill="#ED9111" d="M30.533,39.208h1.041c0.688,0,0.689,1.041,0,1.041h-1.041C29.845,40.248,29.844,39.208,30.533,39.208z"/>
		</g>
		<g>
			<path fill="#ED9111" d="M27.411,39.208h1.041c0.688,0,0.689,1.041,0,1.041h-1.041C26.723,40.248,26.722,39.208,27.411,39.208z"/>
		</g>
		<g>
			<path fill="#7C7D7D" d="M32.615,37.125v-2.082c0-0.689,1.041-0.688,1.041,0v2.082C33.656,37.814,32.615,37.814,32.615,37.125z"/>
		</g>
		<g>
			<path fill="#7C7D7D" d="M30.533,37.125v-2.082c0-0.689,1.041-0.688,1.041,0v2.082C31.574,37.814,30.533,37.814,30.533,37.125z"/>
		</g>
		<g>
			<path fill="#7C7D7D" d="M28.451,37.125v-2.082c0-0.689,1.041-0.688,1.041,0v2.082C29.492,37.814,28.451,37.814,28.451,37.125z"/>
		</g>
		<path fill="#7C7D7D" d="M31.054,48.232l0.152,0.153c0.488,0.487,1.223-0.25,0.736-0.736l-0.356-0.357l0.088-1.707l1.335,0.334
			c0.667,0.167,0.924-0.843,0.253-1.009l-1.537-0.385c0.016-0.498-0.047-0.996-0.182-1.37c-0.173-0.479-1.234-0.805-1.162,1.371
			l-1.536,0.384c-0.667,0.167-0.416,1.178,0.252,1.009l1.336-0.334l0.087,1.707c-0.326,0.327-0.508,0.447-0.508,0.725
			c0,0.458,0.559,0.697,0.888,0.368L31.054,48.232z"/>
	</g>
	<ellipse fill="#595959" cx="13.445" cy="20.818" rx="1.301" ry="2.603"/>
	<ellipse fill="#595959" cx="23.854" cy="20.818" rx="1.301" ry="2.603"/>
	<circle fill="#FFFFFF" cx="13.879" cy="19.083" r="0.867"/>
	<circle fill="#FFFFFF" cx="24.288" cy="19.083" r="0.867"/>
</g>
</svg>
