<?xml version="1.0" encoding="utf-8"?>
<!-- Generator: Adobe Illustrator 16.0.0, SVG Export Plug-In . SVG Version: 6.00 Build 0)  -->
<!DOCTYPE svg PUBLIC "-//W3C//DTD SVG 1.1//EN" "http://www.w3.org/Graphics/SVG/1.1/DTD/svg11.dtd">
<svg version="1.1" id="iconmonstr" xmlns="http://www.w3.org/2000/svg" xmlns:xlink="http://www.w3.org/1999/xlink" x="0px" y="0px"
	 width="362.066px" height="184.424px" viewBox="0 0 362.066 184.424" enable-background="new 0 0 362.066 184.424"
	 xml:space="preserve" preserveAspectRatio="none">
<linearGradient id="SVGID_1_" gradientUnits="userSpaceOnUse" x1="181.0332" y1="90.4263" x2="181.0332" y2="730.2813">
	<stop  offset="0" style="stop-color:#FFFFFF"/>
	<stop  offset="1" style="stop-color:#898989"/>
</linearGradient>
<path fill="url(#SVGID_1_)" stroke="#C4C4C4" stroke-width="0.75" stroke-miterlimit="10" d="M348.855,92.211
	c0-7.264,5.634-13.181,12.836-13.931V5.737c0-2.953-2.443-5.362-5.464-5.362H5.839c-3.021,0-5.464,2.409-5.464,5.362v72.397
	c7.922,0,14.339,6.306,14.339,14.077c0,7.783-6.417,14.078-14.339,14.078v72.396c0,2.964,2.443,5.363,5.464,5.363h350.389
	c3.021,0,5.464-2.399,5.464-5.363v-72.544C354.489,105.393,348.855,99.486,348.855,92.211z"/>
</svg>
